<?xml version="1.0" standalone="no"?>
<!DOCTYPE svg PUBLIC "-//W3C//DTD SVG 20010904//EN"
 "http://www.w3.org/TR/2001/REC-SVG-20010904/DTD/svg10.dtd">
<svg version="1.0" xmlns="http://www.w3.org/2000/svg"
 width="512.000000pt" height="512.000000pt" viewBox="0 0 512.000000 512.000000"
 preserveAspectRatio="xMidYMid meet">
<metadata>
Created by potrace 1.14, written by Peter Selinger 2001-2017
</metadata>
<g transform="translate(0.000000,512.000000) scale(0.100000,-0.100000)"
fill="#000000" stroke="none">
<path d="M2168 5115 c-2 -2 -61 -6 -133 -9 -71 -4 -143 -9 -160 -11 -16 -2
-57 -7 -90 -9 -241 -20 -659 -107 -747 -156 -10 -6 -22 -10 -28 -10 -6 0 -58
-23 -117 -50 -411 -196 -650 -514 -777 -1035 -13 -55 -27 -116 -30 -136 -3
-20 -8 -42 -10 -50 -5 -12 -19 -115 -42 -304 -21 -173 -29 -398 -29 -785 1
-339 7 -580 19 -675 2 -16 7 -66 11 -109 4 -43 8 -86 10 -95 3 -17 16 -112 20
-146 5 -41 36 -193 56 -270 64 -252 164 -475 289 -640 42 -56 215 -216 280
-259 264 -176 623 -286 1085 -331 39 -4 84 -8 100 -10 241 -27 1133 -27 1370
0 17 2 62 6 100 10 39 3 86 9 105 11 19 3 46 7 60 9 47 6 115 17 135 21 11 3
35 7 54 10 53 9 61 11 166 37 499 127 820 373 1006 772 62 134 133 353 155
483 3 15 11 63 19 107 8 44 17 100 20 125 3 25 8 56 10 70 2 14 7 59 11 100 3
41 7 88 9 103 12 100 20 362 20 682 0 450 -7 591 -41 870 -24 191 -36 260 -69
396 -9 35 -18 74 -20 86 -10 46 -79 231 -112 303 -39 83 -118 216 -160 270
-38 48 -222 230 -233 230 -5 0 -15 6 -22 13 -27 27 -129 87 -230 135 -161 77
-344 132 -583 176 -72 14 -328 45 -410 51 -49 4 -108 9 -130 11 -47 5 -932 14
-937 9z"/>
</g>
</svg>
